<svg width="32" height="32" viewBox="0 0 32 32" fill="none" xmlns="http://www.w3.org/2000/svg">
<path fill-rule="evenodd" clip-rule="evenodd" d="M5.81246 5.03359L8.93972 7.05094L7.69539 8.1664C6.22539 9.48413 6.32211 9.53202 3.92523 6.3067C1.14183 2.56114 1.55139 2.2848 5.81246 5.03359ZM12.6196 3.91456C13.4691 4.24295 14.769 5.33135 14.769 5.71447C14.769 5.84951 14.4236 5.96017 14.0015 5.96017C13.1569 5.96017 12.9386 6.67912 13.6975 6.96111C14.4442 7.23893 17.2568 6.61219 18.8652 5.80965C21.0045 4.74209 21.3333 4.80723 21.1326 6.25762L20.9677 7.44745H22.9341C25.0415 7.44745 25.2871 7.67292 24.4465 8.83538C24.0283 9.41393 24.0467 9.47758 24.6767 9.64118C25.0531 9.73905 25.6764 9.82085 26.0614 9.82293C26.9781 9.82828 27.2603 10.596 26.6042 11.2983C26.1077 11.8299 26.1338 11.8727 27.1808 12.2395C27.8854 12.4864 28.2777 12.8153 28.2777 13.1589C28.2777 13.4531 28.1396 13.694 27.9707 13.694C27.3309 13.694 27.7005 14.2315 28.5847 14.5864C29.5558 14.9761 29.7385 15.4318 29.1521 15.9999C28.885 16.2587 29.0066 16.4345 29.6476 16.7177C30.4465 17.0701 30.4864 17.1775 30.3218 18.5247C29.7275 23.3878 25.2843 27.5144 19.5051 28.571C17.6547 28.9092 17.468 28.8946 17.0658 28.3803C16.3496 27.4642 16.1976 25.9311 16.6117 23.804C17.0419 21.5956 16.9145 20.667 16.0382 19.6185L15.4574 18.9233L14.3539 19.8621C13.214 20.8318 11.5853 21.4234 10.0474 21.4261C9.47547 21.4273 8.75674 21.7839 8.01069 22.4368C6.59166 23.6793 4.87422 24.0357 3.32655 23.4092C2.37542 23.024 2.20379 22.7861 1.90599 21.4413C1.33095 18.8436 1.412 18.5899 3.50953 16.4262C5.57728 14.2931 6.89315 12.3242 7.2235 10.8682C7.34907 10.3158 8.07025 9.40917 9.11656 8.48854L10.8073 7.00126L10.3462 5.53748C10.0929 4.73257 9.95625 3.96275 10.0428 3.82711C10.2525 3.49812 11.666 3.54631 12.6196 3.91456ZM9.08924 13.694C9.08924 14.2393 9.27406 14.4629 9.78125 14.5328C10.1966 14.59 10.5476 14.4412 10.6584 14.161C10.9642 13.3891 10.5359 12.7514 9.78125 12.8552C9.27406 12.9251 9.08924 13.1488 9.08924 13.694Z" fill="#2CAE76"/>
</svg>
