<svg width="19" height="19" viewBox="0 0 19 19" fill="none" xmlns="http://www.w3.org/2000/svg">
<path d="M17.8098 12.5717L13.4188 10.6899C13.1895 10.5912 12.9392 10.5514 12.6907 10.5743C12.4421 10.5971 12.2032 10.6818 11.9958 10.8206L9.64801 12.3856C8.21311 11.6877 7.05176 10.5315 6.34753 9.0997L6.34771 9.09952L7.90722 6.71658C8.04297 6.50971 8.12533 6.27241 8.14693 6.02593C8.16853 5.77944 8.1287 5.53144 8.031 5.30411L6.1474 0.909302C6.01918 0.610982 5.79778 0.362221 5.51635 0.200264C5.23492 0.0383066 4.9086 -0.0281321 4.58624 0.0108954C3.31956 0.173759 2.15548 0.792197 1.31148 1.75068C0.467486 2.70916 0.00129462 3.94213 0 5.21924C0 12.6632 6.05603 18.7192 13.5 18.7192C14.7771 18.7179 16.0101 18.2517 16.9686 17.4077C17.9271 16.5637 18.5455 15.3996 18.7083 14.1329C18.7473 13.8106 18.6808 13.4843 18.5188 13.2029C18.3568 12.9214 18.1081 12.7 17.8098 12.5717V12.5717Z" fill="black"/>
</svg>
