<svg width="256" height="256" viewBox="0 0 256 256" fill="none" xmlns="http://www.w3.org/2000/svg">
<path fill-rule="evenodd" clip-rule="evenodd" d="M46.5004 40.2686L71.5185 56.4074L61.5638 65.3311C49.8039 75.8729 50.5776 76.256 31.4026 50.4535C9.13532 20.489 12.4118 18.2783 46.5004 40.2686ZM100.958 31.3164C107.754 33.9435 118.153 42.6506 118.153 45.7156C118.153 46.796 115.39 47.6812 112.013 47.6812C105.256 47.6812 103.51 53.4328 109.581 55.6887C115.554 57.9113 138.055 52.8974 150.923 46.4771C168.037 37.9366 170.667 38.4577 169.061 50.0609L167.742 59.5795H183.474C200.333 59.5795 202.297 61.3832 195.573 70.6829C192.227 75.3113 192.375 75.8206 197.415 77.1294C200.426 77.9123 205.412 78.5667 208.492 78.5833C215.826 78.6262 218.083 84.768 212.834 90.3864C208.863 94.6388 209.071 94.9815 217.447 97.9156C223.084 99.8907 226.223 102.523 226.223 105.271C226.223 107.625 225.117 109.552 223.766 109.552C218.648 109.552 221.605 113.852 228.679 116.691C236.447 119.808 237.909 123.454 233.218 127.999C231.081 130.069 232.053 131.476 237.182 133.741C243.573 136.561 243.892 137.42 242.575 148.198C237.82 187.102 202.275 220.115 156.041 228.568C141.238 231.273 139.745 231.157 136.527 227.042C130.797 219.713 129.581 207.448 132.895 190.432C136.336 172.765 135.316 165.336 128.307 156.948L123.66 151.386L114.832 158.896C105.713 166.654 92.683 171.387 80.3802 171.409C75.8044 171.418 70.0546 174.271 64.0863 179.495C52.734 189.434 38.9945 192.285 26.6131 187.274C19.004 184.192 17.6311 182.288 15.2486 171.53C10.6483 150.749 11.2967 148.719 28.077 131.409C44.619 114.345 55.1459 98.5938 57.7887 86.9454C58.7933 82.5264 64.5627 75.2732 72.9332 67.9082L86.4591 56.01L82.77 44.2997C80.7437 37.8604 79.6507 31.7019 80.3434 30.6168C82.0209 27.9849 93.3289 28.3704 100.958 31.3164ZM72.7146 109.552C72.7146 113.914 74.1932 115.703 78.2507 116.263C81.5739 116.72 84.3812 115.53 85.2679 113.288C87.7142 107.113 84.2879 102.011 78.2507 102.841C74.1932 103.401 72.7146 105.19 72.7146 109.552Z" fill="#2CAE76"/>
</svg>
